<?xml version="1.0" encoding="utf-8" standalone="no"?>
<!DOCTYPE svg PUBLIC "-//W3C//DTD SVG 1.1//EN"
  "http://www.w3.org/Graphics/SVG/1.1/DTD/svg11.dtd">
<svg xmlns:xlink="http://www.w3.org/1999/xlink" width="518.4pt" height="259.2pt" viewBox="0 0 518.4 259.2" xmlns="http://www.w3.org/2000/svg" version="1.1">
 <metadata>
  <rdf:RDF xmlns:dc="http://purl.org/dc/elements/1.1/" xmlns:cc="http://creativecommons.org/ns#" xmlns:rdf="http://www.w3.org/1999/02/22-rdf-syntax-ns#">
   <cc:Work>
    <dc:type rdf:resource="http://purl.org/dc/dcmitype/StillImage"/>
    <dc:date>2026-09-13T10:19:37.608331</dc:date>
    <dc:format>image/svg+xml</dc:format>
    <dc:creator>
     <cc:Agent>
      <dc:title>Matplotlib v3.11.2, https://matplotlib.org/</dc:title>
     </cc:Agent>
    </dc:creator>
   </cc:Work>
  </rdf:RDF>
 </metadata>
 <defs>
  <style type="text/css">*{stroke-linejoin: round; stroke-linecap: butt}</style>
 </defs>
 <g id="figure_1">
  <g id="patch_1">
   <path d="M 0 259.2 
L 518.4 259.2 
L 518.4 0 
L 0 0 
z
" style="fill: #ffffff"/>
  </g>
  <g id="axes_1">
   <g id="patch_2">
    <path d="M 45.883678 228.19976 
L 515.39976 228.19976 
L 515.39976 17.80024 
L 45.883678 17.80024 
z
" style="fill: #ffffff"/>
   </g>
   <g id="patch_3">
    <path d="M 67.225318 228.19976 
L 209.502918 228.19976 
L 209.502918 51.393441 
L 67.225318 51.393441 
z
" clip-path="url(#p6700a136b8)" style="fill: url(#had3de8eaab); stroke: #333333; stroke-width: 0.3; stroke-linejoin: miter"/>
   </g>
   <g id="patch_4">
    <path d="M 351.780519 228.19976 
L 494.05812 228.19976 
L 494.05812 98.95102 
L 351.780519 98.95102 
z
" clip-path="url(#p6700a136b8)" style="fill: #cc79a7; stroke: #333333; stroke-width: 0.3; stroke-linejoin: miter"/>
   </g>
   <g id="matplotlib.axis_1">
    <g id="xtick_1">
     <g id="line2d_1">
      <defs>
       <path id="m1d34712316" d="M 0 0 
L 0 3.5 
" style="stroke: #000000; stroke-width: 0.8"/>
      </defs>
      <g>
       <use xlink:href="#m1d34712316" x="138.364118" y="228.19976" style="stroke: #000000; stroke-width: 0.8"/>
      </g>
     </g>
     <g id="text_1">
      <text style="font-size: 8px; font-family: 'Noto Sans SC', 'DejaVu Sans', sans-serif; text-anchor: middle" x="138.364118" y="242.23976" transform="rotate(-0 138.364118 242.23976)">无储能参照</text>
     </g>
    </g>
    <g id="xtick_2">
     <g id="line2d_2">
      <g>
       <use xlink:href="#m1d34712316" x="422.91932" y="228.19976" style="stroke: #000000; stroke-width: 0.8"/>
      </g>
     </g>
     <g id="text_2">
      <text style="font-size: 8px; font-family: 'Noto Sans SC', 'DejaVu Sans', sans-serif; text-anchor: middle" x="422.91932" y="242.23976" transform="rotate(-0 422.91932 242.23976)">现有储能方案</text>
     </g>
    </g>
    <g id="text_3">
     <text style="font-size: 9px; font-family: 'Noto Sans SC', 'DejaVu Sans', sans-serif; text-anchor: middle" x="280.641719" y="255.11976" transform="rotate(-0 280.641719 255.11976)">同一输入下的确定性方案</text>
    </g>
   </g>
   <g id="matplotlib.axis_2">
    <g id="ytick_1">
     <g id="line2d_3">
      <defs>
       <path id="m6168b86450" d="M 0 0 
L -3.5 0 
" style="stroke: #000000; stroke-width: 0.8"/>
      </defs>
      <g>
       <use xlink:href="#m6168b86450" x="45.883678" y="228.19976" style="stroke: #000000; stroke-width: 0.8"/>
      </g>
     </g>
     <g id="text_4">
      <text style="font-size: 8px; font-family: 'Noto Sans SC', 'DejaVu Sans', sans-serif; text-anchor: end" x="38.883678" y="231.71976" transform="rotate(-0 38.883678 231.71976)">0</text>
     </g>
    </g>
    <g id="ytick_2">
     <g id="line2d_4">
      <g>
       <use xlink:href="#m6168b86450" x="45.883678" y="191.405007" style="stroke: #000000; stroke-width: 0.8"/>
      </g>
     </g>
     <g id="text_5">
      <text style="font-size: 8px; font-family: 'Noto Sans SC', 'DejaVu Sans', sans-serif; text-anchor: end" x="38.883678" y="194.925007" transform="rotate(-0 38.883678 194.925007)">10000</text>
     </g>
    </g>
    <g id="ytick_3">
     <g id="line2d_5">
      <g>
       <use xlink:href="#m6168b86450" x="45.883678" y="154.610254" style="stroke: #000000; stroke-width: 0.8"/>
      </g>
     </g>
     <g id="text_6">
      <text style="font-size: 8px; font-family: 'Noto Sans SC', 'DejaVu Sans', sans-serif; text-anchor: end" x="38.883678" y="158.130254" transform="rotate(-0 38.883678 158.130254)">20000</text>
     </g>
    </g>
    <g id="ytick_4">
     <g id="line2d_6">
      <g>
       <use xlink:href="#m6168b86450" x="45.883678" y="117.815501" style="stroke: #000000; stroke-width: 0.8"/>
      </g>
     </g>
     <g id="text_7">
      <text style="font-size: 8px; font-family: 'Noto Sans SC', 'DejaVu Sans', sans-serif; text-anchor: end" x="38.883678" y="121.335501" transform="rotate(-0 38.883678 121.335501)">30000</text>
     </g>
    </g>
    <g id="ytick_5">
     <g id="line2d_7">
      <g>
       <use xlink:href="#m6168b86450" x="45.883678" y="81.020747" style="stroke: #000000; stroke-width: 0.8"/>
      </g>
     </g>
     <g id="text_8">
      <text style="font-size: 8px; font-family: 'Noto Sans SC', 'DejaVu Sans', sans-serif; text-anchor: end" x="38.883678" y="84.540747" transform="rotate(-0 38.883678 84.540747)">40000</text>
     </g>
    </g>
    <g id="ytick_6">
     <g id="line2d_8">
      <g>
       <use xlink:href="#m6168b86450" x="45.883678" y="44.225994" style="stroke: #000000; stroke-width: 0.8"/>
      </g>
     </g>
     <g id="text_9">
      <text style="font-size: 8px; font-family: 'Noto Sans SC', 'DejaVu Sans', sans-serif; text-anchor: end" x="38.883678" y="47.745994" transform="rotate(-0 38.883678 47.745994)">50000</text>
     </g>
    </g>
    <g id="text_10">
     <text style="font-size: 9px; font-family: 'Noto Sans SC', 'DejaVu Sans', sans-serif; text-anchor: middle" x="10.92024" y="123" transform="rotate(-90 10.92024 123)">序列总购电费 (元)</text>
    </g>
   </g>
   <g id="patch_5">
    <path d="M 45.883678 228.19976 
L 45.883678 17.80024 
" style="fill: none; stroke: #000000; stroke-width: 0.8; stroke-linejoin: miter; stroke-linecap: square"/>
   </g>
   <g id="patch_6">
    <path d="M 45.883678 228.19976 
L 515.39976 228.19976 
" style="fill: none; stroke: #000000; stroke-width: 0.8; stroke-linejoin: miter; stroke-linecap: square"/>
   </g>
   <g id="text_11">
    <text style="font-size: 9px; font-family: 'Noto Sans SC', 'DejaVu Sans', sans-serif; text-anchor: middle" x="138.364118" y="45.683441" transform="rotate(-0 138.364118 45.683441)">48,052.05</text>
   </g>
   <g id="text_12">
    <text style="font-size: 9px; font-family: 'Noto Sans SC', 'DejaVu Sans', sans-serif; text-anchor: middle" x="422.91932" y="93.24102" transform="rotate(-0 422.91932 93.24102)">35,126.95</text>
   </g>
   <g id="text_13">
    <text style="font-size: 10px; font-family: 'Noto Sans SC', 'DejaVu Sans', sans-serif; text-anchor: middle" x="280.641719" y="11.80024" transform="rotate(-0 280.641719 11.80024)">节约 12,925.10 元 (26.90%)</text>
   </g>
  </g>
 </g>
 <defs>
  <clipPath id="p6700a136b8">
   <rect x="45.883678" y="17.80024" width="469.516083" height="210.39952"/>
  </clipPath>
 </defs>
 <defs>
  <pattern id="had3de8eaab" patternUnits="userSpaceOnUse" x="0" y="0" width="72" height="72">
   <rect x="0" y="0" width="73" height="73" fill="#666666"/>
   <path d="M -36 36 
L 36 -36 
M -30 42 
L 42 -30 
M -24 48 
L 48 -24 
M -18 54 
L 54 -18 
M -12 60 
L 60 -12 
M -6 66 
L 66 -6 
M 0 72 
L 72 0 
M 6 78 
L 78 6 
M 12 84 
L 84 12 
M 18 90 
L 90 18 
M 24 96 
L 96 24 
M 30 102 
L 102 30 
M 36 108 
L 108 36 
" style="fill: #333333; stroke: #333333; stroke-width: 1.0; stroke-linecap: butt; stroke-linejoin: miter"/>
  </pattern>
 </defs>
</svg>
